<?xml version="1.0" ?><!DOCTYPE svg  PUBLIC '-//W3C//DTD SVG 1.1//EN'  'http://www.w3.org/Graphics/SVG/1.1/DTD/svg11.dtd'><svg fill="#fff" height="8.4666mm" style="shape-rendering:geometricPrecision; text-rendering:geometricPrecision; image-rendering:optimizeQuality; fill-rule:evenodd; clip-rule:evenodd" version="1.1" viewBox="0 0 846.66 846.66" width="8.4666mm" xml:space="preserve" xmlns="http://www.w3.org/2000/svg" xmlns:xlink="http://www.w3.org/1999/xlink"><defs><style type="text/css">
   <![CDATA[
    .fil0 {fill:black;fill-rule:nonzero}
   ]]>
  </style></defs><g id="Layer_x0020_1"><path class="fil0" d="M612.8 311.01c0,-27.16 41.3,-27.16 41.3,0 0,82.44 -33.45,160.57 -93.05,217.48l227.83 273.96c17.27,20.77 -14.35,47.07 -31.63,26.29l-227.81 -273.94c-49.48,35.78 -110.28,56.87 -176,56.87 -166.05,0 -300.66,-134.61 -300.66,-300.66 0,-166.05 134.61,-300.66 300.66,-300.66 27.16,0 27.16,41.3 0,41.3 -143.24,0 -259.36,116.12 -259.36,259.36 0,143.24 116.12,259.36 259.36,259.36 143.24,0 259.36,-116.12 259.36,-259.36zm45.16 -254.33c13.2,-2.55 25.57,8.28 24.5,21.87l-9.85 124.7c-2.11,27.05 -43.26,23.83 -41.14,-3.23l5.09 -64.37 -183.95 203.59c-7.64,9.46 -21.78,10.33 -30.48,1.77l-105.21 -103.33 -101.94 144.25c-15.58,22.15 -49.29,-1.57 -33.72,-23.71l115.94 -164.07c7.58,-10.78 23.09,-11.71 31.97,-2.17l106.53 104.63 172.62 -191.05 -63.85 9.29c-26.85,3.82 -32.64,-37 -5.8,-40.82l119.29 -17.35z"/></g></svg>